<svg width="13" height="13" viewBox="0 0 13 13" fill="none" xmlns="http://www.w3.org/2000/svg">
<path d="M12.2423 2.55609C11.8099 2.74768 11.3454 2.87713 10.8571 2.93564C11.361 2.63417 11.7379 2.1597 11.9176 1.60075C11.4443 1.88191 10.9262 2.07982 10.3859 2.18587C10.0226 1.79797 9.54145 1.54086 9.01706 1.45446C8.49266 1.36807 7.95441 1.45722 7.48588 1.70807C7.01734 1.95892 6.64473 2.35745 6.4259 2.84177C6.20707 3.32609 6.15425 3.8691 6.27566 4.38651C5.31653 4.33836 4.37825 4.08906 3.5217 3.65481C2.66516 3.22057 1.90949 2.61106 1.30375 1.86587C1.09663 2.22315 0.977535 2.63739 0.977535 3.07855C0.977304 3.4757 1.0751 3.86677 1.26226 4.21706C1.44942 4.56734 1.72014 4.86602 2.05041 5.08658C1.66739 5.07439 1.29281 4.97089 0.957858 4.7847V4.81577C0.95782 5.37279 1.1505 5.91266 1.5032 6.34379C1.85589 6.77492 2.34689 7.07075 2.89287 7.18108C2.53755 7.27724 2.16502 7.29141 1.80342 7.2225C1.95747 7.70178 2.25753 8.1209 2.66161 8.42117C3.06568 8.72144 3.55354 8.88784 4.05689 8.89706C3.20243 9.56783 2.14718 9.93167 1.0609 9.93007C0.868476 9.93013 0.676215 9.91889 0.485107 9.89642C1.58775 10.6054 2.8713 10.9816 4.18219 10.9802C8.61973 10.9802 11.0456 7.30483 11.0456 4.11726C11.0456 4.0137 11.043 3.9091 11.0384 3.80554C11.5102 3.4643 11.9176 3.04174 12.2412 2.55765L12.2423 2.55609Z" fill="white"/>
</svg>
