<svg width="13" height="13" viewBox="0 0 13 13" fill="none" xmlns="http://www.w3.org/2000/svg">
<path d="M10.8463 4.30022C10.841 3.90805 10.7676 3.51978 10.6293 3.15278C10.5093 2.84321 10.3261 2.56207 10.0914 2.32732C9.85664 2.09256 9.5755 1.90936 9.26593 1.78941C8.90365 1.65342 8.52091 1.57988 8.13402 1.57194C7.6359 1.54967 7.47797 1.54346 6.21351 1.54346C4.94904 1.54346 4.78697 1.54346 4.29247 1.57194C3.90576 1.57994 3.5232 1.65347 3.16108 1.78941C2.85146 1.90928 2.57028 2.09245 2.33552 2.32722C2.10075 2.56198 1.91758 2.84316 1.79771 3.15278C1.66144 3.51479 1.58807 3.89743 1.58075 4.28417C1.55849 4.78281 1.55176 4.94074 1.55176 6.2052C1.55176 7.46967 1.55176 7.63122 1.58075 8.12624C1.58852 8.51355 1.66153 8.89569 1.79771 9.25867C1.91778 9.56819 2.10109 9.84926 2.33593 10.0839C2.57077 10.3186 2.85198 10.5017 3.1616 10.6215C3.52273 10.763 3.90535 10.8418 4.29299 10.8545C4.79163 10.8768 4.94956 10.8835 6.21402 10.8835C7.47849 10.8835 7.64056 10.8835 8.13506 10.8545C8.52193 10.8469 8.9047 10.7735 9.26697 10.6376C9.57645 10.5175 9.85752 10.3342 10.0923 10.0995C10.327 9.86476 10.5102 9.58368 10.6303 9.2742C10.7665 8.91174 10.8395 8.52961 10.8473 8.14177C10.8696 7.64365 10.8763 7.48572 10.8763 6.22074C10.8753 4.95627 10.8753 4.79575 10.8463 4.30022ZM6.2104 8.5964C4.88794 8.5964 3.81661 7.52507 3.81661 6.20262C3.81661 4.88016 4.88794 3.80883 6.2104 3.80883C6.84527 3.80883 7.45414 4.06103 7.90306 4.50995C8.35198 4.95888 8.60419 5.56774 8.60419 6.20262C8.60419 6.83749 8.35198 7.44636 7.90306 7.89528C7.45414 8.3442 6.84527 8.5964 6.2104 8.5964ZM8.69946 4.27847C8.39033 4.27847 8.14127 4.02889 8.14127 3.72029C8.14127 3.64702 8.1557 3.57447 8.18374 3.50678C8.21178 3.43908 8.25288 3.37758 8.30469 3.32577C8.35649 3.27396 8.418 3.23286 8.48569 3.20483C8.55338 3.17679 8.62593 3.16236 8.6992 3.16236C8.77247 3.16236 8.84502 3.17679 8.91271 3.20483C8.9804 3.23286 9.04191 3.27396 9.09372 3.32577C9.14552 3.37758 9.18662 3.43908 9.21466 3.50678C9.2427 3.57447 9.25713 3.64702 9.25713 3.72029C9.25713 4.02889 9.00755 4.27847 8.69946 4.27847Z" fill="white"/>
<path d="M6.21047 7.75736C7.06925 7.75736 7.76542 7.06119 7.76542 6.20241C7.76542 5.34364 7.06925 4.64746 6.21047 4.64746C5.35169 4.64746 4.65552 5.34364 4.65552 6.20241C4.65552 7.06119 5.35169 7.75736 6.21047 7.75736Z" fill="white"/>
</svg>
