<svg width="86" height="59" viewBox="0 0 86 59" fill="none" xmlns="http://www.w3.org/2000/svg">
<path d="M0.59968 44.2254C0.99968 49.8254 4.43301 55.2254 6.09968 57.2254C6.59975 51.7254 19.0996 48.2254 21.5996 48.2254C23.5996 48.2254 37.4329 44.2254 44.0996 42.2254C53.4329 39.2254 74.5996 32.1254 84.5996 27.7254C88.0996 10.2254 78.5996 -1.27456 78.0996 0.725444C77.6996 2.32544 65.2663 7.05875 59.0996 9.22542C46.9329 13.7254 20.5996 23.0254 12.5996 24.2254C4.59961 25.4254 1.93299 28.3921 1.59968 29.7254C1.09968 32.2254 0.19968 38.6254 0.59968 44.2254Z" fill="#3F509E" stroke="#3F509E"/>
<path d="M34.809 26.8464C34.405 26.7822 33.9876 26.7519 33.5566 26.7554C33.1228 26.75 32.7285 26.8054 32.3736 26.9215C31.8946 27.0783 31.548 27.3095 31.3338 27.6153C31.1285 27.9182 31.0868 28.2559 31.2087 28.6284C31.2958 28.8946 31.4658 29.0992 31.7189 29.2422C31.9779 29.3735 32.2829 29.4652 32.6338 29.5173C32.9907 29.5577 33.3595 29.5892 33.7401 29.612C34.0677 29.6226 34.398 29.6569 34.7312 29.7148C35.0704 29.761 35.3901 29.8528 35.6904 29.9902C35.9907 30.1276 36.2596 30.3342 36.4972 30.61C36.7318 30.877 36.9246 31.2411 37.0756 31.7023C37.241 32.208 37.2648 32.7157 37.1469 33.2257C37.0349 33.7239 36.7801 34.1755 36.3823 34.5807C35.9846 34.9858 35.4442 35.3001 34.7612 35.5236C34.3531 35.6571 33.9394 35.7434 33.5201 35.7824C33.1096 35.8185 32.7068 35.8177 32.3115 35.7801C31.9133 35.7336 31.5359 35.6607 31.1793 35.5614L31.475 34.1241C31.7401 34.2141 32.032 34.2807 32.3505 34.3238C32.669 34.3668 32.9877 34.3804 33.3066 34.3645C33.6254 34.3485 33.9135 34.2984 34.1707 34.2143C34.4457 34.1243 34.7017 33.9914 34.9388 33.8156C35.1819 33.6281 35.3587 33.4033 35.4694 33.1412C35.5889 32.8762 35.5935 32.5752 35.4832 32.2381C35.3932 31.9631 35.2365 31.7542 35.013 31.6113C34.7983 31.4655 34.5391 31.3637 34.2355 31.3059C33.9289 31.2393 33.6059 31.1977 33.2666 31.181C32.9272 31.1644 32.5791 31.1359 32.2222 31.0956C31.8653 31.0553 31.516 30.9781 31.1742 30.864C30.8385 30.7382 30.537 30.5521 30.2697 30.3056C30.0025 30.0592 29.7963 29.7142 29.6512 29.2707C29.477 28.7384 29.4503 28.2365 29.571 27.7649C29.6916 27.2934 29.9315 26.8712 30.2907 26.4983C30.6588 26.1225 31.1282 25.8314 31.699 25.625C32.382 25.4015 32.9906 25.2957 33.5248 25.3075C34.0649 25.3075 34.559 25.3619 35.007 25.4706L34.809 26.8464ZM42.0928 33.1687C41.5695 33.34 41.0542 33.3858 40.547 33.3063C40.0486 33.2239 39.6041 33.006 39.2135 32.6526C38.82 32.2903 38.5173 31.7854 38.3054 31.1379C38.0965 30.4992 38.0466 29.9116 38.1558 29.375C38.271 28.8266 38.5008 28.3586 38.8453 27.9709C39.1987 27.5803 39.6282 27.3023 40.1338 27.1369C40.6749 26.9598 41.1459 26.9285 41.5467 27.0428C41.9534 27.1454 42.2963 27.3082 42.5755 27.5311L42.5653 27.7701L42.3721 26.6843L43.7426 26.2359L45.5843 31.8642L44.094 32.3519L43.6456 30.9814L43.9095 31.2927C43.9003 31.3547 43.8584 31.4666 43.7837 31.6285C43.715 31.7787 43.6107 31.9552 43.4709 32.1581C43.331 32.361 43.1484 32.5533 42.9231 32.735C42.7067 32.9139 42.4299 33.0584 42.0928 33.1687ZM42.1048 31.8096C42.3797 31.7197 42.6122 31.5896 42.802 31.4195C42.9918 31.2493 43.1331 31.0509 43.2259 30.8241C43.3186 30.5974 43.3598 30.3482 43.3495 30.0766L42.949 28.8525C42.8025 28.645 42.6219 28.4832 42.4071 28.3669C42.1894 28.2417 41.9492 28.1681 41.6867 28.146C41.433 28.121 41.1686 28.1535 40.8937 28.2434C40.5832 28.345 40.324 28.5133 40.1161 28.7483C39.9171 28.9804 39.7813 29.2556 39.7087 29.5739C39.6449 29.8894 39.6697 30.2201 39.7829 30.566C39.8932 30.9031 40.0731 31.183 40.3228 31.4058C40.5724 31.6285 40.8565 31.7762 41.1748 31.8488C41.4932 31.9214 41.8032 31.9083 42.1048 31.8096ZM44.2331 20.8166L45.7234 20.329L49.1194 30.7075L47.6291 31.1952L44.2331 20.8166ZM53.8991 29.3055C53.2338 29.5232 52.624 29.5804 52.0697 29.477C51.5154 29.3736 51.04 29.1363 50.6436 28.7652C50.2472 28.394 49.9532 27.9158 49.7617 27.3303C49.5788 26.7715 49.5553 26.2194 49.6911 25.6741C49.824 25.12 50.0865 24.6315 50.4784 24.2086C50.8763 23.774 51.368 23.4609 51.9534 23.2693C52.7252 23.0168 53.4334 23.0355 54.0782 23.3253C54.729 23.6034 55.2721 24.1229 55.7077 24.8838L51.6711 27.8987L51.0509 27.1736L54.1899 24.7471L53.9272 25.0245C53.7514 24.7875 53.5207 24.6076 53.2351 24.485C52.9465 24.3536 52.6071 24.3517 52.2168 24.4794C51.9064 24.581 51.656 24.7464 51.4659 24.9755C51.2757 25.2047 51.1532 25.4756 51.0984 25.7881C51.0495 26.0889 51.0831 26.4167 51.1992 26.7715C51.3211 27.1441 51.5024 27.4432 51.7432 27.6688C51.9811 27.8856 52.2533 28.0273 52.5599 28.0939C52.8636 28.1517 53.1795 28.1269 53.5078 28.0195C53.7384 27.944 53.9427 27.833 54.1206 27.6864C54.3073 27.5369 54.4765 27.3637 54.6281 27.1668L55.6681 28.0491C55.4363 28.3312 55.1619 28.5879 54.8448 28.8193C54.5337 29.039 54.2185 29.2011 53.8991 29.3055Z" fill="#EEEFFB"/>
</svg>
