<svg width="65" height="43" viewBox="0 0 65 43" fill="none" xmlns="http://www.w3.org/2000/svg">
<path d="M15.917 25.468V36.0974H53.2749C54.3422 36.0974 55.2075 35.2321 55.2075 34.1648C55.2075 33.2264 55.2075 26.4046 55.2075 25.468L35.5622 22.8911L15.917 25.468Z" fill="#8B9BA9"/>
<path d="M51.3422 24.9528V32.2322H15.917V36.0975H53.2749C54.3422 36.0975 55.2075 35.2322 55.2075 34.1649C55.2075 33.2756 55.2075 26.3404 55.2075 25.4681L51.3422 24.9528Z" fill="#6C7A88"/>
<path d="M56.9474 0H21.7157C20.6484 0 19.7831 0.865292 19.7831 1.93261V7.95525H6.89457C5.08668 7.95525 3.52024 9.20861 3.12354 10.9724L1.66081 17.4771C1.28511 19.1479 1.09546 20.8553 1.09546 22.5678V36.0972H19.7831C19.7831 35.7827 19.7831 31.0027 19.7831 25.4679H56.9475C58.0148 25.4679 58.8801 24.6026 58.8801 23.5353V1.93261C58.88 0.865164 58.0149 0 56.9474 0Z" fill="#FF7E40"/>
<path d="M64.034 17.1683H58.8801V13.7003H61.4571C61.9909 13.7003 62.4234 13.2676 62.4234 12.7339C62.4234 12.2003 61.9909 11.7676 61.4571 11.7676H58.8801V8.29964H62.7455C63.2793 8.29964 63.7118 7.867 63.7118 7.33334C63.7118 6.79968 63.2793 6.36704 62.7455 6.36704H58.8801V2.89891H64.034C64.5678 2.89891 65.0003 2.46626 65.0003 1.93261C65.0003 1.39895 64.5678 0.966303 64.034 0.966303H58.6195C58.2852 0.389227 57.6625 0 56.9475 0H55.0149V21.6028H19.7831C19.7831 14.8043 19.7831 8.13872 19.7831 7.95512H15.9179V25.468H13.019C10.2018 25.468 7.63901 26.5718 5.735 28.3669H1.09546V36.0974H19.7831C19.7831 35.8352 19.7831 31.0333 19.7831 25.468H31.6949H56.9475C57.6625 25.468 58.2852 25.0788 58.6195 24.5017H62.7455C63.2793 24.5017 63.7118 24.0691 63.7118 23.5354C63.7118 23.0018 63.2793 22.5691 62.7455 22.5691H58.8801V19.101H64.034C64.5678 19.101 65.0003 18.6683 65.0003 18.1347C65.0003 17.601 64.5678 17.1683 64.034 17.1683Z" fill="#FF6344"/>
<path d="M0.966303 36.0971H8.03913V32.2319H0.966303C0.432646 32.2319 0 32.6646 0 33.1982V35.1308C0 35.6646 0.432646 36.0971 0.966303 36.0971Z" fill="#8B9BA9"/>
<path d="M15.9179 11.8203H6.66405L4.82666 19.991H15.9179V11.8203Z" fill="#9DC6FB"/>
<path d="M12.2832 16.1258H5.69582L4.82666 19.991H15.9179V11.8203H12.2832V16.1258Z" fill="#80B4FB"/>
<path d="M45.8667 42.8613C49.6024 42.8613 52.6308 39.8329 52.6308 36.0971C52.6308 32.3614 49.6024 29.333 45.8667 29.333C42.1309 29.333 39.1025 32.3614 39.1025 36.0971C39.1025 39.8329 42.1309 42.8613 45.8667 42.8613Z" fill="#4D5967"/>
<path d="M47.2499 29.4757C46.4571 30.9405 46.6788 32.8092 47.917 34.0472L43.8173 38.1469C42.5792 36.9088 40.7105 36.6869 39.2456 37.4799C39.8857 40.5485 42.6112 42.8612 45.8671 42.8612C49.5969 42.8612 52.6312 39.8269 52.6312 36.0971C52.6311 32.8412 50.3185 30.1158 47.2499 29.4757Z" fill="#35404A"/>
<path d="M45.8664 38.9962C47.4675 38.9962 48.7654 37.6983 48.7654 36.0973C48.7654 34.4963 47.4675 33.1984 45.8664 33.1984C44.2654 33.1984 42.9675 34.4963 42.9675 36.0973C42.9675 37.6983 44.2654 38.9962 45.8664 38.9962Z" fill="#FFF9EB"/>
<path d="M13.0188 42.8613C16.7545 42.8613 19.7829 39.8329 19.7829 36.0971C19.7829 32.3614 16.7545 29.333 13.0188 29.333C9.28304 29.333 6.25464 32.3614 6.25464 36.0971C6.25464 39.8329 9.28304 42.8613 13.0188 42.8613Z" fill="#4D5967"/>
<path d="M14.402 29.4757C13.6092 30.9405 13.8309 32.8092 15.069 34.0472L10.9693 38.1469C9.73132 36.9088 7.86262 36.6869 6.39771 37.4799C7.03778 40.5485 9.76327 42.8612 13.0192 42.8612C16.749 42.8612 19.7833 39.8269 19.7833 36.0971C19.7833 32.8412 17.4708 30.1158 14.402 29.4757Z" fill="#35404A"/>
<path d="M13.0185 38.9962C14.6196 38.9962 15.9175 37.6983 15.9175 36.0973C15.9175 34.4963 14.6196 33.1984 13.0185 33.1984C11.4175 33.1984 10.1196 34.4963 10.1196 36.0973C10.1196 37.6983 11.4175 38.9962 13.0185 38.9962Z" fill="#FFF9EB"/>
<path d="M29.5606 10.802V11.7683H30.7845C31.3182 11.7683 31.7505 12.2007 31.7505 12.7344C31.7505 13.2682 31.3182 13.7007 30.7845 13.7007H29.5606V15.6331C29.5606 16.1669 29.128 16.5994 28.5945 16.5994C28.0609 16.5994 27.6284 16.167 27.6284 15.6331V9.83592C27.6284 9.30226 28.0609 8.86987 28.5945 8.86987H31.5574C32.0911 8.86987 32.5235 9.30226 32.5235 9.83592C32.5235 10.3697 32.0911 10.8022 31.5574 10.8022H29.5606V10.802Z" fill="#FFF9EB"/>
<path d="M38.7694 14.9524C39.1449 15.3312 39.1424 15.9431 38.7636 16.3188C38.575 16.5054 38.3292 16.5989 38.0832 16.5989C37.8346 16.5989 37.586 16.5035 37.3971 16.313L35.7645 14.6665H35.2491V15.6326C35.2491 16.1663 34.8165 16.5989 34.2829 16.5989C33.7494 16.5989 33.3169 16.1665 33.3169 15.6326V9.83537C33.3169 9.30171 33.7494 8.86932 34.2829 8.86932H36.1672C37.7565 8.86932 39.0495 10.1697 39.0495 11.7679C39.0495 12.7107 38.5992 13.5496 37.9036 14.0794L38.7694 14.9524ZM37.117 11.7679C37.117 11.235 36.6908 10.8015 36.1672 10.8015H35.2491V12.7339H36.1672C36.6908 12.7339 37.117 12.3005 37.117 11.7679Z" fill="#FFF9EB"/>
<path d="M45.0383 15.6324C45.0383 16.1662 44.606 16.5987 44.0723 16.5987H41.1094C40.5758 16.5987 40.1433 16.1663 40.1433 15.6324V9.83519C40.1433 9.30153 40.5758 8.86914 41.1094 8.86914H44.0723C44.606 8.86914 45.0383 9.30153 45.0383 9.83519C45.0383 10.369 44.606 10.8015 44.0723 10.8015H42.0755V11.7678H43.2994C43.833 11.7678 44.2654 12.2002 44.2654 12.734C44.2654 13.2678 43.833 13.7003 43.2994 13.7003H42.0755V14.6664H44.0723C44.606 14.6663 45.0383 15.0987 45.0383 15.6324Z" fill="#FFF9EB"/>
<path d="M51.0339 15.6324C51.0339 16.1662 50.6016 16.5987 50.0679 16.5987H47.105C46.5714 16.5987 46.1389 16.1663 46.1389 15.6324V9.83519C46.1389 9.30153 46.5714 8.86914 47.105 8.86914H50.0679C50.6016 8.86914 51.0339 9.30153 51.0339 9.83519C51.0339 10.369 50.6016 10.8015 50.0679 10.8015H48.0711V11.7678H49.295C49.8286 11.7678 50.261 12.2002 50.261 12.734C50.261 13.2678 49.8286 13.7003 49.295 13.7003H48.0711V14.6664H50.0679C50.6016 14.6663 51.0339 15.0987 51.0339 15.6324Z" fill="#FFF9EB"/>
</svg>
